<svg xmlns="http://www.w3.org/2000/svg" width="85.266" height="83.586" viewBox="0 0 85.266 83.586"><defs><style>.a{fill:#c15d26;}.b{fill:#231f20;}</style></defs><g transform="translate(-403.835 -237.221)"><path class="a" d="M487.217,296.559c.027.031.055.061.081.093.029-.055.055-.112.087-.167C487.326,296.507,487.274,296.535,487.217,296.559Z"/><path class="a" d="M457.622,258.8c5.925-8.228-1.448-13.758-.678-21.575C452.32,247.741,460.935,249.837,457.622,258.8Z"/><path class="a" d="M471.872,320.807c0-.023,0-.044,0-.067h-.065C471.832,320.761,471.851,320.785,471.872,320.807Z"/><path class="a" d="M472.352,262.743c-3.745,1.046-2.956,4.731.162,7.871C470.972,267.969,470.226,264.931,472.352,262.743Z"/><path class="a" d="M481.09,278.051c-.946,2.635-.514,4.969-.2,7.376.266,2.052.339,5.378-2.3,5.137-3.9-.273-1.708-6.354-1.66-8.832a10.274,10.274,0,0,0-4.117-8.81c-4.587-3.83-10.561-8.485-5.94-15-4.887,2.117-3.349,7.277-1.928,12.353.858,3.069,2.606,9.958-2.041,10.955-2.12.454-4.508-1.646-4.727-6.266-.252-9.724,8.714-20.927,3.689-28.149,1.211,9.087-5.9,16-10.265,23.533-3.571,6.156-3.336,10.8-2.335,17.514.836,5.862-3.941,6.319-4.873,1.254-.585-5.162,3-9.777-.427-13.621,2.457,6.16-3.744,10.147-4.607,15.644-.969,13.8,13.475,18.554,21.918,18.577,18.254.05,23.547-15.16,23.189-19.161C484.07,286.2,480.674,283.524,481.09,278.051Z"/><path class="b" d="M483.873,273.41a5.235,5.235,0,0,1,5.228,5.228v24.135l-52.368-.627a3.44,3.44,0,0,1-3.386-3.427V273.41Zm-49.012,25.309a1.92,1.92,0,0,0,1.89,1.913l50.835.609v-22.6a3.718,3.718,0,0,0-3.713-3.713H434.861"/><path class="b" d="M405.8,273.374h29.81a3.224,3.224,0,0,1,3.22,3.22v2.077a3.224,3.224,0,0,1-3.22,3.22H407.131a3.3,3.3,0,0,1-3.3-3.3v-3.255A1.966,1.966,0,0,1,405.8,273.374Zm31.444,3.22a1.636,1.636,0,0,0-1.634-1.633H405.8a.377.377,0,0,0-.377.378v3.255a1.712,1.712,0,0,0,1.709,1.71h28.478a1.635,1.635,0,0,0,1.634-1.633Z"/><path class="b" d="M483.212,276.216a2.771,2.771,0,1,1-2.771,2.771A2.774,2.774,0,0,1,483.212,276.216Zm0,1.514a1.257,1.257,0,1,0,1.257,1.257A1.259,1.259,0,0,0,483.212,277.73Z"/><path class="b" d="M422.525,276.066a1.578,1.578,0,1,1-1.578,1.579A1.58,1.58,0,0,1,422.525,276.066Zm0,.863a.716.716,0,1,0,.716.716A.716.716,0,0,0,422.525,276.929Z"/><path class="b" d="M416.914,276.066a1.578,1.578,0,1,1-1.578,1.579A1.58,1.58,0,0,1,416.914,276.066Zm0,.863a.716.716,0,1,0,.716.716A.716.716,0,0,0,416.914,276.929Z"/><path class="b" d="M411.3,276.066a1.578,1.578,0,1,1-1.578,1.579A1.58,1.58,0,0,1,411.3,276.066Zm0,.863a.716.716,0,1,0,.716.716A.716.716,0,0,0,411.3,276.929Z"/><path class="b" d="M433.367,294.031a3.679,3.679,0,0,0,2.466,2.632,5.831,5.831,0,0,0,1.819.346l51.209.672.02-1.515-51.219-.671c-.1,0-2.395-.038-2.822-1.817Z"/></g></svg>