<svg xmlns="http://www.w3.org/2000/svg" width="241.302" height="340.805" viewBox="0 0 241.302 340.805"><defs><style>.a{fill:#2c91a6;}</style></defs><path class="a" d="M789.816,582.128,894.669,410.383a4.559,4.559,0,0,0,.291-.6c7.626-11.96-2.283-27.36-9.893-36.791a4.155,4.155,0,0,0-1.372-1.134c1.438-2.693,2.863-5.326,4.337-7.741a3.94,3.94,0,0,0,.325-.673c4.452-7.451.147-16.824-4.954-23.782,7.759-18.8,15.505-38.053,20.527-57.651a3.744,3.744,0,0,0,.11-1.008v-.006a3.292,3.292,0,0,0-.055-.6c-.009-.068-.005-.13-.018-.2C900,259.4,871.461,296.638,867.21,301.313q-8.288,9.114-16.391,18.41c-8.562-1.3-19.068-.742-23.593,6.535a3.82,3.82,0,0,0-.379.5c-1.459,2.389-3.106,4.816-4.793,7.272a4.324,4.324,0,0,0-1.225-.459c-12.5-2.545-31.6-2.888-38.041,8.254-.041.062-.09.107-.13.173l-96.8,158.549c-6.862,11.24-15.331,22.48-21,34.391-10.96,23.046,23.207,51.152,39.464,61.286,16.535,10.307,50.864,28.706,69.151,11.367C780.446,600.988,784.915,590.156,789.816,582.128Zm75.129-211.355a31.88,31.88,0,0,0,10.345.551l-6.348,10.4c-6.16,10.091-15.409,9.035-25.729,4.564l10.015-19.426a60.187,60.187,0,0,0,7.424,2.818c-1.859,3.243-3.627,6.533-5.217,9.923-1.155,2.462,2.478,4.714,3.645,2.226C860.854,378.042,862.835,374.375,864.945,370.773ZM852.309,328.78c4.316-5.007,8.7-9.955,13.108-14.882,5.864-6.555,11.779-13.068,17.824-19.457,1.093-1.154,10.853-10.433,13.264-12.273-3.831,14.211-9.4,28.05-14.658,41.761-1.735,4.52-3.521,9.021-5.309,13.52a3.874,3.874,0,0,0-.946,2.41c-.337.841-.653,1.69-.993,2.529-.553,1.366-1.477,5.6-2.678,6.513-2.968,2.256-10.528-2.625-13.782-4.611s-11.049-6.481-10.4-10.152C848,332.652,851.347,329.9,852.309,328.78Zm-7-2.709c-.166.195-.339.384-.5.58-3.638,4.308-5.862,6.678-3.121,12.347,4.009,8.288,20.8,18.965,30.252,17.48,5.389-.848,6.32-4.266,8.163-8.815,3.38,6.225,4.619,13.633-4.185,16.179-7.432,2.15-17.6-2.062-23.8-5.486-6.025-3.332-11.71-7.832-15.6-13.56-3.32-4.889-4.2-6.472-2.223-12.325C836.212,326.794,840.294,325.678,845.31,326.071Zm-5.951,58.393a64.528,64.528,0,0,1-8.082-4.983q4.638-10.035,10.078-19.651a65.582,65.582,0,0,0,7.054,4.6c.321.18.667.358,1,.538ZM827.847,376.8a37.924,37.924,0,0,1-6.608-7.1,2.163,2.163,0,0,0,.583-.628l10.627-17.407a52.678,52.678,0,0,0,5.523,5.476Q832.5,366.761,827.847,376.8Zm-1.614-35.37a28.888,28.888,0,0,0,3.426,6.611l-10.7,17.52a14.414,14.414,0,0,1,.946-13.771ZM773.142,593.047c-8.031,13.156-18.87,14.588-34.347,10.021-20.818-6.143-41.717-19.3-55.384-36.173-5.955-7.349-14.527-18.682-10.7-28.414,4.552-11.578,13.983-22.9,20.442-33.482l13.9-22.772a162.756,162.756,0,0,0,98.562,57.629Zm36.442-59.689a155.89,155.89,0,0,1-98.6-57.567L746,418.432c2.954,4.814,6.527,10.064,11.356,11.033,4.2.843,8.692-2.088,12.712-2.684,11.081-1.644,23.769,3.159,33.116,8.691,8.619,5.1,17.2,12.693,21.849,21.728,2.165,4.213,2.76,10.1,5.736,13.813,3.43,4.276,8.49,5.009,13.688,5.22ZM848.755,469.2c-5.046-.267-10.171-.682-13.319-5.056-2.212-3.072-2.694-7.734-4.51-11.091-5.63-10.409-15.774-19.16-26.008-24.822-9.25-5.119-20.14-8.884-30.81-8.816-4.089.026-8.592,2.55-12.393,2.318-5.961-.363-8.624-5.478-11.547-10.121L781.922,359.6c6.369,22.894,34.285,40.447,53.3,49.847,4.889,2.416,9.386-4.852,4.451-7.291-15.978-7.9-31.529-18.2-42.417-32.576-3.632-4.793-9.26-12.886-8.178-19.4,2.06-12.4,18.541-10.479,27.938-8.679a64.637,64.637,0,0,0-6.4,11.969c-5.94,15.682,14.64,32,26.393,37.836,10.049,4.989,25.286,9.558,34.216.1a61.123,61.123,0,0,0,8.238-11.785c5.549,6.993,15.221,20.909,5.825,28.165-8.749,6.757-24.058,2.111-33.316-.752-5.248-1.623-7.616,6.586-2.354,8.213,8.257,2.553,19.779,5.406,29.685,3.914Z" transform="translate(-662.738 -273.927)"/></svg>